<?xml version="1.0" standalone="no"?>
<!DOCTYPE svg PUBLIC "-//W3C//DTD SVG 20010904//EN"
 "http://www.w3.org/TR/2001/REC-SVG-20010904/DTD/svg10.dtd">
<svg version="1.0" xmlns="http://www.w3.org/2000/svg"
 width="1016.000000pt" height="1016.000000pt" viewBox="0 0 1016.000000 1016.000000"
 preserveAspectRatio="xMidYMid meet">
<metadata>
Created by potrace 1.14, written by Peter Selinger 2001-2017
</metadata>
<g transform="translate(0.000000,1016.000000) scale(0.100000,-0.100000)"
fill="#000000" stroke="none">
<path d="M5075 9430 c3 -5 1 -10 -4 -10 -6 0 -11 -6 -11 -13 0 -7 -8 -22 -17
-33 -10 -11 -19 -26 -21 -33 -1 -7 -11 -25 -21 -39 -28 -41 -121 -201 -121
-209 0 -3 -6 -14 -14 -22 -7 -9 -30 -47 -51 -86 -21 -38 -46 -81 -56 -94 -11
-13 -19 -30 -19 -37 0 -8 -4 -14 -8 -14 -4 0 -13 -12 -20 -27 -7 -16 -23 -46
-37 -68 -13 -22 -29 -49 -35 -60 -5 -11 -14 -27 -20 -35 -34 -53 -89 -150 -94
-168 -4 -12 -12 -22 -17 -22 -5 0 -9 -4 -9 -9 0 -4 -50 -93 -111 -197 -61
-104 -115 -199 -120 -211 -5 -13 -14 -23 -20 -23 -7 0 -10 -3 -6 -6 3 -4 -9
-31 -28 -60 -19 -30 -35 -56 -35 -59 0 -3 -16 -29 -35 -59 -19 -30 -35 -60
-35 -66 0 -5 -4 -10 -10 -10 -5 0 -10 -5 -10 -11 0 -6 -33 -67 -74 -135 -41
-68 -80 -137 -88 -154 -7 -16 -16 -30 -19 -30 -3 0 -16 -22 -29 -50 -13 -27
-27 -50 -32 -50 -4 0 -8 -4 -8 -10 0 -8 -99 -184 -130 -230 -6 -8 -13 -22 -17
-30 -4 -8 -38 -66 -75 -129 -37 -62 -68 -115 -68 -117 0 -2 -18 -33 -40 -69
-22 -36 -40 -70 -40 -75 0 -6 -4 -10 -10 -10 -5 0 -10 -4 -10 -9 0 -9 -27 -58
-93 -166 -10 -16 -23 -42 -30 -57 -6 -16 -15 -28 -19 -28 -4 0 -8 -4 -8 -9 0
-4 -26 -53 -59 -107 -32 -55 -69 -118 -82 -141 -29 -50 -102 -176 -194 -333
-38 -63 -76 -131 -87 -150 -10 -19 -27 -48 -38 -65 -11 -16 -23 -37 -27 -45
-3 -8 -21 -39 -40 -68 -18 -29 -34 -58 -36 -65 -1 -7 -4 -14 -7 -17 -7 -6
-103 -168 -113 -190 -4 -8 -16 -28 -27 -45 -11 -16 -23 -37 -27 -45 -7 -13
-80 -137 -128 -218 -5 -10 -28 -49 -50 -87 -22 -39 -44 -78 -50 -87 -5 -10
-42 -73 -81 -140 -40 -68 -96 -163 -124 -213 -29 -49 -61 -104 -71 -122 -10
-17 -29 -49 -42 -70 -13 -21 -27 -45 -30 -53 -4 -8 -16 -28 -27 -45 -11 -16
-23 -37 -27 -45 -26 -51 -118 -206 -125 -208 -4 -2 -8 -12 -8 -23 0 -10 -4
-19 -9 -19 -5 0 -19 -21 -31 -47 -12 -27 -25 -50 -29 -53 -3 -3 -13 -19 -22
-35 -9 -17 -46 -81 -82 -144 -37 -62 -67 -118 -67 -122 0 -5 -4 -9 -10 -9 -5
0 -10 -4 -10 -10 0 -5 -25 -50 -55 -101 -30 -50 -55 -93 -55 -96 0 -2 -16 -29
-35 -59 -19 -30 -35 -56 -35 -58 0 -2 -42 -75 -93 -163 -160 -271 -181 -308
-178 -312 1 -2 -1 -7 -6 -10 -13 -9 -68 -105 -65 -113 1 -5 -2 -8 -8 -8 -5 0
-10 -6 -10 -13 0 -7 -9 -23 -20 -35 -11 -12 -20 -28 -20 -37 0 -8 -4 -15 -9
-15 -5 0 -11 -8 -14 -17 -4 -10 -17 -36 -31 -58 -14 -22 -37 -64 -53 -93 -15
-28 -30 -52 -34 -52 -4 0 -9 -10 -13 -23 -3 -12 -15 -32 -26 -45 -11 -12 -18
-22 -14 -22 3 0 -2 -12 -12 -27 -10 -16 -40 -66 -67 -113 -27 -47 -58 -98 -68
-115 -10 -16 -22 -37 -26 -45 -4 -8 -49 -86 -100 -173 -51 -88 -93 -162 -93
-167 0 -4 -9 -15 -20 -25 -11 -10 -17 -21 -15 -26 3 -4 -1 -13 -8 -21 -8 -7
-16 -18 -18 -23 -2 -6 -37 -66 -77 -135 -40 -69 -77 -132 -82 -140 -4 -8 -29
-49 -54 -91 -25 -42 -46 -82 -46 -88 0 -6 -4 -11 -9 -11 -5 0 -11 -8 -14 -17
-4 -10 -18 -37 -31 -60 l-26 -43 1160 0 c1062 0 1161 1 1167 16 3 9 51 94 106
188 85 145 171 293 297 510 57 99 186 318 195 334 6 9 21 35 33 57 12 22 33
58 47 80 13 22 36 63 50 90 15 28 32 57 40 65 7 8 16 25 19 38 4 12 12 22 17
22 5 0 9 5 9 11 0 6 9 24 21 40 11 16 17 29 12 29 -4 0 -3 4 3 8 6 4 23 28 37
55 15 26 39 68 54 95 14 26 30 49 35 50 4 2 8 8 8 13 0 5 48 91 106 192 59
100 115 196 125 214 10 17 29 50 43 72 15 22 26 43 26 46 0 3 12 24 27 48 15
23 42 69 61 102 60 105 74 129 93 160 11 17 22 37 26 45 3 8 21 39 40 68 18
29 33 54 33 56 0 2 43 76 95 165 52 89 95 166 95 171 0 6 4 10 8 10 5 0 19 23
32 50 13 28 27 50 31 50 4 0 11 9 14 20 4 11 40 78 82 148 79 134 108 185 139
242 11 19 21 37 24 40 7 7 29 43 37 60 4 8 23 42 43 75 20 33 39 67 43 75 4 8
16 29 27 45 11 17 26 44 35 60 8 17 26 48 40 70 14 22 31 51 37 65 7 14 25 44
40 67 15 23 28 46 28 52 0 6 5 11 10 11 6 0 10 5 10 10 0 6 18 40 40 76 22 36
40 68 40 71 0 2 16 29 35 59 19 30 35 58 35 62 0 4 8 18 18 32 17 24 56 89
113 193 17 31 35 57 39 57 4 0 12 -10 19 -22 6 -13 24 -44 39 -70 15 -26 69
-120 121 -210 52 -90 97 -165 100 -168 4 -3 19 -30 35 -60 17 -30 45 -78 63
-107 18 -29 33 -55 33 -58 0 -3 16 -31 35 -61 19 -30 35 -56 35 -59 0 -2 25
-45 55 -96 30 -50 55 -95 55 -100 0 -5 5 -9 10 -9 6 0 10 -5 10 -11 0 -7 14
-35 32 -63 30 -49 42 -69 93 -161 13 -22 76 -130 140 -240 65 -110 131 -225
148 -255 17 -30 34 -56 39 -58 4 -2 8 -8 8 -12 0 -5 39 -76 87 -157 48 -81 92
-157 98 -168 6 -11 36 -63 66 -115 219 -371 379 -650 379 -659 0 -6 4 -11 8
-11 5 0 18 -19 31 -42 12 -24 30 -56 39 -73 47 -80 123 -212 132 -225 9 -14
111 -190 172 -295 16 -27 37 -63 47 -80 10 -16 30 -52 45 -80 28 -49 114 -196
144 -245 9 -14 14 -25 12 -25 -3 0 10 -21 28 -47 18 -26 32 -51 32 -57 0 -6 5
-11 11 -11 5 0 7 -5 4 -10 -3 -6 -2 -10 4 -10 5 0 13 -10 17 -22 4 -13 20 -42
35 -65 16 -23 29 -46 29 -51 0 -5 7 -15 15 -22 8 -7 13 -16 10 -20 -3 -5 -1
-10 3 -12 5 -1 23 -30 42 -63 18 -33 40 -68 49 -79 9 -10 15 -20 13 -22 -1 -2
30 -60 70 -129 l73 -125 1158 0 1159 0 -20 33 c-90 151 -112 187 -131 222 -12
22 -25 47 -31 55 -10 17 -118 201 -190 325 -56 97 -229 394 -253 433 -15 26
-32 56 -37 67 -6 11 -33 58 -60 104 -28 46 -50 88 -50 92 0 5 -4 9 -10 9 -5 0
-10 6 -10 14 0 7 -7 19 -15 26 -8 7 -12 16 -9 21 3 5 0 9 -5 9 -6 0 -11 4 -11
10 0 13 -62 114 -72 118 -4 2 -8 11 -8 21 0 9 -5 22 -11 28 -12 12 -29 39 -56
93 -10 19 -21 37 -24 40 -3 3 -16 25 -30 50 -13 25 -27 47 -31 48 -5 2 -8 7
-8 12 0 4 -45 85 -100 179 -55 93 -100 173 -100 176 0 3 -5 11 -11 18 -13 15
-439 747 -439 755 0 3 -6 13 -14 21 -8 9 -26 39 -41 66 -14 28 -39 71 -55 97
-15 25 -39 66 -53 90 -81 142 -152 264 -156 268 -4 3 -13 19 -21 35 -8 17 -19
36 -25 44 -10 14 -59 97 -96 166 -12 22 -26 43 -31 46 -5 3 -9 9 -9 13 2 6
-60 117 -106 188 -12 21 -23 42 -23 48 0 5 -3 10 -8 10 -4 0 -13 15 -21 32 -8
18 -17 35 -20 38 -4 3 -12 16 -19 30 -7 14 -21 39 -31 55 -20 33 -192 329
-224 385 -10 19 -23 40 -27 45 -4 6 -17 26 -27 45 -11 19 -62 107 -113 195
-51 88 -98 170 -104 182 -6 13 -14 23 -18 23 -5 0 -8 4 -8 9 0 8 -34 68 -87
156 -7 11 -15 26 -19 34 -4 8 -52 91 -107 185 -55 94 -107 184 -116 201 -9 16
-18 32 -21 35 -3 3 -12 19 -20 35 -8 17 -18 32 -21 35 -3 3 -19 30 -35 60 -16
30 -35 60 -41 68 -7 7 -13 20 -13 28 0 8 -4 14 -9 14 -5 0 -11 8 -15 18 -3 9
-14 31 -23 47 -10 17 -34 57 -53 90 -19 33 -39 68 -45 77 -56 94 -75 129 -75
138 0 5 -4 10 -9 10 -5 0 -13 10 -17 22 -3 12 -11 26 -16 32 -10 12 -153 255
-176 301 -9 17 -31 53 -49 82 -18 29 -33 57 -33 63 0 5 -5 10 -11 10 -5 0 -8
4 -4 9 3 5 1 12 -4 15 -5 4 -37 55 -71 114 -34 59 -65 114 -70 122 -65 106
-120 203 -120 210 0 6 -5 10 -11 10 -5 0 -8 4 -5 9 3 5 -1 14 -9 21 -8 7 -15
19 -15 26 0 8 -4 14 -10 14 -5 0 -10 6 -10 14 0 8 -6 21 -13 28 -6 7 -21 31
-32 53 -11 22 -23 42 -27 43 -5 2 -8 8 -8 13 0 5 -11 26 -23 47 -13 20 -35 57
-49 82 -14 25 -53 91 -87 148 -33 56 -61 107 -61 112 0 6 -4 10 -9 10 -5 0
-11 8 -14 18 -7 19 -19 41 -125 219 -39 67 -72 124 -72 127 0 3 -13 24 -29 48
-15 24 -43 70 -61 103 -18 33 -41 72 -51 87 -11 14 -19 28 -19 31 0 8 -91 157
-96 157 -3 0 -2 -4 1 -10z"/>
<path d="M5040 3027 c-19 -34 -36 -68 -38 -74 -2 -7 -8 -13 -13 -13 -5 0 -9
-4 -9 -10 0 -5 -21 -44 -46 -87 -26 -43 -60 -103 -77 -133 -17 -30 -33 -57
-36 -60 -4 -3 -12 -16 -18 -30 -7 -14 -24 -43 -37 -65 -29 -46 -49 -82 -73
-127 -9 -18 -21 -37 -25 -43 -5 -5 -52 -84 -104 -175 -52 -91 -98 -172 -103
-180 -49 -79 -101 -171 -101 -180 0 -5 -4 -10 -9 -10 -5 0 -11 -8 -14 -17 -4
-10 -27 -52 -52 -93 -25 -41 -52 -88 -61 -105 -8 -16 -23 -43 -34 -60 -11 -16
-28 -46 -39 -65 -50 -90 -171 -296 -181 -307 -5 -7 -10 -15 -10 -18 0 -11 -84
-150 -92 -153 -5 -2 -8 -7 -8 -12 0 -7 -32 -65 -93 -170 -11 -19 -31 -54 -45
-77 l-24 -43 1381 0 c760 0 1381 4 1381 8 0 4 -4 12 -10 18 -5 5 -19 27 -32
50 -25 44 -143 249 -158 274 -44 72 -90 151 -90 154 0 3 -24 44 -53 93 -74
122 -111 188 -107 188 2 0 -4 9 -13 20 -9 11 -17 24 -16 29 0 5 -3 12 -8 15
-7 5 -76 119 -117 196 -6 11 -19 31 -28 45 -30 45 -69 115 -75 133 -3 9 -9 17
-14 17 -5 0 -9 6 -9 13 -1 6 -23 48 -50 92 -28 44 -55 91 -62 105 -7 14 -36
65 -65 113 -29 48 -53 92 -53 97 0 6 -4 10 -10 10 -5 0 -10 4 -10 10 0 5 -24
49 -52 97 -29 49 -60 102 -68 118 -8 17 -17 32 -21 35 -3 3 -18 28 -33 55 -48
84 -56 98 -84 146 -15 25 -52 89 -82 142 -30 53 -57 97 -60 97 -3 0 -21 -28
-40 -63z"/>
</g>
</svg>
