<svg width="1965" height="1900" viewBox="0 0 1965 1900" fill="none" xmlns="http://www.w3.org/2000/svg"><path fill-rule="evenodd" clip-rule="evenodd" d="M594.104 653.606C592.554 694.228 595.796 735.291 604.268 775.305C499.963 702.939 365.927 683.061 253.842 687.588C225.53 688.732 199.492 691.411 176.642 694.937C268.043 753.715 309.858 846.88 333.938 922.843C360.451 1006.49 424.802 1075.01 504.445 1115.79C584.297 1156.68 674.631 1167.22 750.187 1141.52C776.331 1132.63 804.732 1146.62 813.624 1172.76C822.516 1198.9 808.531 1227.3 782.387 1236.2C676.592 1272.18 558.096 1255.61 458.867 1204.8C359.429 1153.88 274.449 1066.12 238.612 953.06C210.517 864.43 164.762 778.749 53.086 748.995C44.0158 746.578 27.3961 741.224 14.949 727.188C7.64487 718.951 1.42731 707.226 0.616698 692.721C-0.1656 678.723 4.37691 667.312 9.0481 659.592C17.3999 645.789 29.9138 637.383 37.547 632.847C46.542 627.502 56.8387 622.923 67.4325 618.979C109.213 603.423 174.898 590.695 249.806 587.67C351.459 583.564 479.426 597.086 594.104 653.606Z" fill="#ffd4d1"/><path fill-rule="evenodd" clip-rule="evenodd" d="M1241.93 973.281C1215.55 965.108 1187.54 979.865 1179.37 1006.24C1171.2 1032.62 1185.95 1060.63 1212.33 1068.8C1288.56 1092.42 1355.45 1154.04 1396.02 1234.06C1436.48 1313.87 1448.26 1407.13 1420.55 1490.38C1395.38 1565.99 1374.45 1665.94 1413.84 1767.22C1393.28 1756.64 1370.65 1743.5 1347.07 1727.78C1253.65 1665.52 1156.82 1570.55 1115.02 1450.56C1098.33 1487.9 1076.8 1523.01 1051.65 1554.95C1111.19 1668.24 1206.87 1754.51 1291.6 1810.99C1353.98 1852.57 1414.6 1880.89 1457.55 1892.86C1468.44 1895.9 1479.46 1898.24 1489.88 1899.21C1498.72 1900.02 1513.78 1900.58 1528.65 1894.32C1536.97 1890.82 1547.35 1884.26 1554.95 1872.47C1562.82 1860.26 1564.68 1847.12 1563.61 1836.17C1561.79 1817.49 1551.49 1803.39 1545.58 1796.11C1472.72 1706.39 1486.06 1610.18 1515.43 1521.97C1552.89 1409.44 1535.73 1288.48 1485.21 1188.84C1434.8 1089.41 1348.67 1006.35 1241.93 973.281Z" fill="#ffd4d1"/><path fill-rule="evenodd" clip-rule="evenodd" d="M1073.25 243.594C1063.41 217.02 1052.82 193.085 1042.4 172.443C1014.75 277.533 939.063 346.092 874.258 392.467C802.903 443.529 757.617 525.906 743.442 614.253C729.231 702.833 747.122 792.002 794.91 855.919C811.446 878.035 806.921 909.369 784.805 925.904C762.689 942.439 731.356 937.915 714.82 915.799C647.907 826.301 627.045 708.485 644.705 598.412C662.403 488.106 719.615 380.164 816.063 311.144C891.674 257.037 959.022 187.044 952.81 71.6389C952.306 62.2659 952.262 44.8051 961.765 28.6296C967.341 19.1378 976.571 9.60132 990.116 4.34815C1003.19 -0.721519 1015.44 0.0725975 1024.23 2.12951C1039.94 5.80716 1051.8 15.1111 1058.47 20.9689C1066.33 27.8718 1073.87 36.2496 1080.9 45.1061C1108.6 80.0351 1141 138.572 1167.03 208.879C1202.3 304.167 1228.96 429.854 1210.78 556.224C1171.63 567.418 1133.57 583.319 1098.14 603.883C1134.69 482.345 1112.18 348.767 1073.25 243.594Z" fill="#ffd4d1"/><path d="M1808.16 833.545C1791.75 849.828 1772.26 867.3 1750.02 884.867C1661.25 955.009 1539.82 1018.19 1411.69 1019.94C1442.48 1047.35 1469.61 1078.77 1492.55 1112.73C1619.44 1091.42 1731.74 1026.76 1812.02 963.331C1870.84 916.853 1916.5 867.947 1941.16 830.805C1947.41 821.387 1953.05 811.63 1957.19 802.019C1960.69 793.862 1965.88 779.706 1964.52 763.63C1963.76 754.639 1960.73 742.737 1951.87 731.872C1942.69 720.614 1930.77 714.783 1920.02 712.413C1901.7 708.373 1885.1 713.811 1876.34 717.187C1768.51 758.757 1681.13 716.334 1606.3 661.144C1510.86 590.744 1390.52 569.688 1280.14 586.943C1170 604.162 1064.4 660.41 999.957 751.705C984.033 774.265 989.413 805.463 1011.97 821.387C1034.53 837.311 1065.73 831.931 1081.66 809.371C1127.68 744.171 1206.95 699.6 1295.59 685.743C1383.99 671.923 1476.33 689.537 1546.94 741.621C1611.08 788.923 1699.67 839.717 1808.16 833.545Z" fill="#ffd4d1"/><path d="M496.446 1270.25C534.719 1284.25 574.893 1293.81 615.677 1298.03C514.162 1374.84 453.611 1496.51 423.204 1604.78C415.543 1632.06 410.045 1657.65 406.337 1680.47C490.482 1611.71 592.01 1600.73 671.696 1601.3C759.438 1601.93 844.495 1561.91 907.891 1498.77C971.454 1435.46 1009.39 1352.8 1008.3 1273C1007.92 1245.39 1030 1222.7 1057.61 1222.32C1085.22 1221.95 1107.91 1244.02 1108.29 1271.63C1109.82 1383.37 1057.45 1490.95 978.46 1569.62C899.307 1648.46 789.573 1702.15 670.977 1701.3C578.003 1700.63 482.376 1717.67 419.568 1814.69C414.467 1822.57 404.239 1836.72 387.044 1844.22C376.953 1848.62 363.88 1850.91 349.835 1847.2C336.28 1843.62 326.832 1835.77 320.933 1828.94C310.386 1816.73 306.259 1802.24 304.304 1793.57C301.999 1783.37 300.827 1772.16 300.349 1760.87C298.466 1716.32 306.659 1649.92 326.929 1577.74C354.479 1479.65 407.003 1361.91 496.446 1270.25Z" fill="#ffd4d1"/></svg>
